<svg width="20" height="20" viewBox="0 0 20 20" fill="none" xmlns="http://www.w3.org/2000/svg">
<path fill-rule="evenodd" clip-rule="evenodd" d="M10.0003 2.62854C5.66318 2.62854 2.14319 5.36283 2.14319 8.72568C2.14319 10.8235 3.50247 12.6543 5.57675 13.77L4.70461 16.9678C4.68815 17.0314 4.69154 17.0986 4.71431 17.1602C4.73709 17.2218 4.77816 17.275 4.83203 17.3126C4.88589 17.3502 4.94997 17.3705 5.01567 17.3707C5.08137 17.3708 5.14555 17.3509 5.19961 17.3135L9.01816 14.7757C9.3403 14.7757 9.6703 14.8307 10.0003 14.8307C14.3374 14.8307 17.8574 12.0964 17.8574 8.72568C17.8574 5.35497 14.3374 2.62854 10.0003 2.62854Z" fill="black"/>
</svg>
